<svg width="50" height="50" viewBox="0 0 800 625" fill="none" xmlns="http://www.w3.org/2000/svg">
<path d="M798.041 84.6453C794.716 67.8422 787.219 51.9609 776.281 38.6094C774.059 35.8063 771.736 33.3125 769.195 30.7828C749.736 11.2203 722.667 0 694.928 0H105.069C77.0203 0 50.6406 10.9375 30.7891 30.7938C28.2766 33.3 25.9469 35.8187 23.6406 38.7109C12.75 52.0062 5.28594 67.8656 2.04062 84.6922C0.684375 91.3 0 98.1469 0 105.073V519.35C0 533.763 2.92813 547.797 8.73281 561.139C13.7563 572.987 21.3781 584.22 30.7828 593.62C33.1516 595.978 35.5047 598.153 38.0172 600.273C56.8203 615.845 80.6297 624.414 105.069 624.414H694.928C719.525 624.414 743.311 615.813 762.064 600.102C764.57 598.073 766.894 595.944 769.217 593.62C778.308 584.539 785.533 574.105 790.727 562.598L791.411 560.958C797.108 547.869 800 533.88 800 519.352V105.073C800 98.2375 799.341 91.3453 798.041 84.6453ZM54.4109 67.0562C55.8969 64.8812 57.7937 62.6484 60.2141 60.2094C72.2281 48.2016 88.1609 41.5937 105.067 41.5937H694.927C711.981 41.5937 727.919 48.2125 739.8 60.2328C741.852 62.3062 743.811 64.6078 745.52 66.9078L750.031 72.9703L435.187 347.37C425.481 355.88 412.984 360.562 399.995 360.562C387.134 360.562 374.648 355.891 364.827 347.381L50.2969 73.0484L54.4109 67.0562ZM41.8047 523.008C41.6344 521.88 41.5953 520.627 41.5953 519.35V113.652L285.923 326.794L44.0609 537.67L41.8047 523.008ZM726.405 574.456C716.948 579.913 706.058 582.806 694.928 582.806H105.069C93.9328 582.806 83.0469 579.913 73.5969 574.456L63.7094 568.725L313.609 350.945L340.997 374.767C357.425 389.03 378.375 396.892 399.998 396.892C421.702 396.892 442.686 389.03 459.103 374.767L486.48 350.934L736.294 568.738L726.405 574.456ZM758.394 519.35C758.394 520.605 758.37 521.845 758.213 522.95L756.047 537.75L514.081 326.908L758.394 113.755V519.35Z" fill="#2D2D2D"/>
</svg>
