<svg width="50" height="50" viewBox="0 0 600 800" fill="none" xmlns="http://www.w3.org/2000/svg">
<path fill-rule="evenodd" clip-rule="evenodd" d="M300 375C258.575 375 225 341.425 225 300C225 258.575 258.575 225 300 225C341.425 225 375 258.575 375 300C375 341.425 341.425 375 300 375ZM300 175C230.975 175 175 230.95 175 300C175 369.05 230.975 425 300 425C369.025 425 425 369.05 425 300C425 230.95 369.025 175 300 175ZM300 725C258.425 725.225 50 404.525 50 300C50 161.95 161.925 50 300 50C438.075 50 550 161.95 550 300C550 403.125 340.925 725.225 300 725ZM300 0C134.325 0 0 134.325 0 300C0 425.45 250.125 800.275 300 800C349.1 800.275 600 423.75 600 300C600 134.325 465.675 0 300 0Z" fill="#2D2D2D"/>
</svg>
