<svg width="50" height="50" viewBox="0 0 287 512" fill="none" xmlns="http://www.w3.org/2000/svg">
<path d="M271.36 512H15.36C6.912 512 0 505.088 0 496.64V15.36C0 6.912 6.912 0 15.36 0H271.36C279.808 0 286.72 6.912 286.72 15.36V496.64C286.72 505.088 279.808 512 271.36 512Z" fill="#2D2D2D"/>
<path d="M267.36 44.96H19.3599V446.56H267.36V44.96Z" fill="white"/>
<path d="M174.08 25.76H112.64C109.824 25.76 107.52 23.456 107.52 20.64C107.52 17.824 109.824 15.52 112.64 15.52H174.08C176.896 15.52 179.2 17.824 179.2 20.64C179.2 23.456 176.896 25.76 174.08 25.76Z" fill="#999999"/>
<path d="M174.08 481.28H112.64C109.824 481.28 107.52 478.976 107.52 476.16C107.52 473.344 109.824 471.04 112.64 471.04H174.08C176.896 471.04 179.2 473.344 179.2 476.16C179.2 478.976 176.896 481.28 174.08 481.28Z" fill="#999999"/>
</svg>
