<?xml version="1.0" encoding="iso-8859-1"?>
<!-- Uploaded to: SVG Repo, www.svgrepo.com, Generator: SVG Repo Mixer Tools -->
<svg fill="#E54B4B" height="40px" width="40px" version="1.1" id="Layer_1" xmlns="http://www.w3.org/2000/svg" xmlns:xlink="http://www.w3.org/1999/xlink" 
	 viewBox="0 0 512 512" xml:space="preserve">
<g>
	<g>
		<path d="M0,41.896v150.813h18.812v277.395h30.417V282.576h80.685V404.21h169.487l82.685-82.685v-38.949h80.685v187.528h30.417
			V192.709H512V41.896H0z M129.914,252.158H49.229v-59.449h80.685V252.158z M308.31,352.285v-21.851h21.851L308.31,352.285z
			 M351.669,192.709v107.308h-73.776v73.776H160.331V192.709v-60.197h191.338V192.709z M462.771,252.158h-80.685v-59.449h80.685
			V252.158z M481.583,162.292h-99.497v-29.779h37.739v-30.417h-37.739v-0.001H129.914v0.001H92.175v30.417h37.739v29.779H30.417
			V72.313h451.166V162.292z"/>
	</g>
</g>
<g>
	<g>
		<rect x="188.587" y="162.297" width="134.819" height="30.417"/>
	</g>
</g>
<g>
	<g>
		<rect x="188.587" y="209.322" width="134.819" height="30.417"/>
	</g>
</g>
<g>
	<g>
		<rect x="188.587" y="256.357" width="134.819" height="30.417"/>
	</g>
</g>
</svg>