<svg width="40" height="40" viewBox="0 0 239 241" fill="none" xmlns="http://www.w3.org/2000/svg">
	<path d="M39.1708 32.5599C37.428 33.9175 37.1157 36.4308 38.4733 38.1736C39.8308 39.9164 42.3442 40.2287 44.087 38.8711L39.1708 32.5599ZM44.087 38.8711C64.7276 22.7932 95.5225 24.4715 115.988 52.2782L122.431 47.5361C99.376 16.2111 63.4703 13.6319 39.1708 32.5599L44.087 38.8711Z" fill="#EE1616" />
	<rect x="4" y="4" width="230.419" height="185.006" rx="26" stroke="#EE1616" stroke-width="8" />
	<path d="M74.7427 237H163.204" stroke="#EE1616" stroke-width="8" stroke-linecap="round" />
	<path d="M111.167 172.665H127.724" stroke="#EE1616" stroke-width="8" stroke-linecap="round" />
	<path d="M3.78467 154.216H234.635" stroke="#EE1616" stroke-width="8" />
	<line x1="95.7725" y1="193.006" x2="95.7725" y2="235.108" stroke="#EE1616" stroke-width="8" />
	<path d="M140.754 205.305C140.754 207.515 142.545 209.305 144.754 209.305C146.964 209.305 148.754 207.515 148.754 205.305L140.754 205.305ZM140.754 193.006L140.754 205.305L148.754 205.305L148.754 193.006L140.754 193.006Z" fill="#EE1616" />
	<path d="M148.754 219.97C148.754 217.761 146.964 215.97 144.754 215.97C142.545 215.97 140.754 217.761 140.754 219.97L148.754 219.97ZM148.754 235.108L148.754 219.97L140.754 219.97L140.754 235.108L148.754 235.108Z" fill="#EE1616" />
	<circle cx="165.332" cy="78.2904" r="51.1108" stroke="#EE1616" stroke-width="8" />
	<path d="M35.4811 46.9446C36.7188 45.1147 36.2387 42.628 34.4088 41.3903C32.5789 40.1526 30.0922 40.6327 28.8545 42.4626L35.4811 46.9446ZM28.8545 42.4626C17.3185 59.5187 14.4283 76.3382 17.6349 91.0149C20.8263 105.622 29.973 117.718 41.8155 125.56C53.6518 133.399 68.3421 137.097 82.8057 134.732C97.3518 132.354 111.39 123.886 121.847 107.919L115.154 103.536C105.861 117.726 93.7333 124.839 81.5149 126.837C69.2139 128.848 56.5411 125.717 46.2325 118.89C35.9301 112.068 28.1502 101.664 25.4505 89.3074C22.766 77.02 25.0202 62.411 35.4811 46.9446L28.8545 42.4626Z" fill="#EE1616" />
	<path d="M67.1063 63.4181H74.1234V82.1823C74.1234 84.3508 73.6073 86.24 72.5751 87.8499C71.5429 89.4503 70.1035 90.6908 68.2569 91.5715C66.4103 92.4427 64.2654 92.8783 61.8222 92.8783C59.3506 92.8783 57.1915 92.4427 55.3449 91.5715C53.4984 90.6908 52.0637 89.4503 51.041 87.8499C50.0182 86.24 49.5069 84.3508 49.5069 82.1823V63.4181H56.5381V81.5715C56.5381 82.5753 56.7559 83.4701 57.1915 84.2561C57.6366 85.0421 58.2569 85.6576 59.0523 86.1027C59.8478 86.5478 60.7711 86.7703 61.8222 86.7703C62.8734 86.7703 63.7919 86.5478 64.5779 86.1027C65.3734 85.6576 65.9936 85.0421 66.4387 84.2561C66.8838 83.4701 67.1063 82.5753 67.1063 81.5715V63.4181ZM91.7553 63.4181V92.509H84.7241V63.4181H91.7553Z" fill="#EE1616" />
	<path d="M152.158 66.3272H158.473V83.2149C158.473 85.1666 158.009 86.8669 157.08 88.3158C156.151 89.7561 154.855 90.8726 153.194 91.6652C151.532 92.4493 149.601 92.8414 147.402 92.8414C145.178 92.8414 143.235 92.4493 141.573 91.6652C139.911 90.8726 138.62 89.7561 137.699 88.3158C136.779 86.8669 136.319 85.1666 136.319 83.2149V66.3272H142.647V82.6652C142.647 83.5686 142.843 84.374 143.235 85.0814C143.635 85.7888 144.194 86.3428 144.909 86.7433C145.625 87.1439 146.456 87.3442 147.402 87.3442C148.348 87.3442 149.175 87.1439 149.882 86.7433C150.598 86.3428 151.157 85.7888 151.557 85.0814C151.958 84.374 152.158 83.5686 152.158 82.6652V66.3272ZM174.419 66.3272L179.2 74.5985H179.405L184.237 66.3272H191.319L183.419 79.4181L191.575 92.509H184.314L179.405 84.1482H179.2L174.291 92.509H167.081L175.199 79.4181L167.285 66.3272H174.419Z" fill="#EE1616" />
</svg>
