<svg width="40" height="40" viewBox="0 0 800 800" fill="none" xmlns="http://www.w3.org/2000/svg">
	<path d="M683.871 118.439V38.7097C683.871 17.3677 666.503 0 645.161 0H154.852C133.51 0 116.129 17.3677 116.129 38.7097V118.426C38.7097 193.858 0 293.587 0 400C0 620.568 179.432 800 400 800C620.568 800 800 620.568 800 400C800 293.6 758.748 193.871 683.871 118.439ZM683.871 156.413C686.981 160.026 690 163.69 692.968 167.406C690.658 169.858 687.639 172.8 683.871 176.181V156.413ZM683.871 374.194V209.29C694.632 201.355 702.8 194.103 708.581 188.323C748.826 246.658 771.445 315.045 773.871 387.097H681.497C682.942 383.045 683.871 378.735 683.871 374.194ZM141.935 38.7097C141.935 31.5871 147.729 25.8065 154.852 25.8065H645.161C652.284 25.8065 658.065 31.5871 658.065 38.7097V309.677H141.935V38.7097ZM141.935 335.484H658.065V374.194C658.065 381.316 652.284 387.097 645.161 387.097H154.852C147.729 387.097 141.935 381.316 141.935 374.194V335.484ZM554.839 438.71V412.903H580.323C580.052 421.626 579.574 430.245 578.787 438.71H554.839ZM575.587 464.516C571.781 488.994 565.961 512.297 558.71 534.335C519.187 524.232 471.032 517.226 412.903 516.297V464.516H575.587ZM245.161 412.903V438.71H221.213C220.426 430.245 219.948 421.626 219.677 412.903H245.161ZM116.142 156.387V176.181C112.374 172.8 109.355 169.845 107.045 167.394C110.013 163.677 113.032 160.013 116.142 156.387ZM91.4065 188.335C97.1871 194.116 103.226 201.368 116.129 209.303V374.194C116.129 378.735 117.071 383.045 118.516 387.097H26.129C28.5419 315.045 51.1613 246.658 91.4065 188.335ZM26.129 412.903H154.852H193.858C194.103 421.626 194.568 430.232 195.29 438.71H167.742V464.516H198.155C202.039 491.639 208.232 517.316 216.039 541.51C147.019 563.355 108.865 593.987 91.4839 611.432C52.3871 554.555 28.6452 486.387 26.129 412.903ZM107.148 632.516C120.374 618.735 155.845 588.039 224.735 566.181C262.877 665.923 326.865 737.161 363.781 772.4C260.077 762.4 168.684 709.858 107.148 632.516ZM387.097 758.568C353.91 727.355 288.813 657.432 250.181 558.968C287.277 549.587 332.503 543.019 387.097 542.103V758.568ZM387.097 516.297C328.968 517.213 280.813 524.232 241.29 534.335C234.039 512.297 228.219 488.994 224.413 464.516H387.097V516.297ZM270.968 438.71V412.903H529.032V438.71H270.968ZM412.903 758.568V542.103C467.497 543.006 512.723 549.587 549.819 558.968C511.187 657.432 446.09 727.355 412.903 758.568ZM436.219 772.413C473.148 737.174 537.135 665.936 575.265 566.194C644.155 588.039 679.626 618.748 692.852 632.529C631.316 709.858 539.923 762.4 436.219 772.413ZM708.516 611.432C691.135 593.987 652.981 563.355 583.961 541.51C591.768 517.303 597.961 491.626 601.845 464.516H632.258V438.71H604.71C605.432 430.232 605.884 421.626 606.142 412.903H645.161H773.871C771.368 486.387 747.626 554.555 708.516 611.432Z" fill="#E54B4B" />
	<path d="M472.232 113.755L491.239 94.7483L472.994 76.5031L453.987 95.5096C442.181 86.658 428.168 80.6451 412.903 78.4515V51.6128H387.097V78.4515C371.832 80.6451 357.819 86.658 346.013 95.5096L327.007 76.5031L308.761 94.7483L327.768 113.755C318.916 125.561 312.903 139.574 310.71 154.839H283.871V180.645H310.71C312.903 195.91 318.916 209.922 327.768 221.729L308.761 240.735L327.007 258.981L346.013 239.974C357.819 248.826 371.832 254.826 387.097 257.032V283.871H412.903V257.032C428.168 254.839 442.181 248.826 453.987 239.974L472.994 258.981L491.239 240.735L472.232 221.729C481.084 209.922 487.084 195.91 489.29 180.645H516.129V154.839H489.29C487.097 139.574 481.084 125.561 472.232 113.755ZM400 232.258C364.426 232.258 335.484 203.316 335.484 167.742C335.484 132.168 364.426 103.226 400 103.226C435.574 103.226 464.516 132.168 464.516 167.742C464.516 203.316 435.574 232.258 400 232.258Z" fill="#E54B4B" />
	<path d="M400 180.645C407.126 180.645 412.903 174.868 412.903 167.742C412.903 160.616 407.126 154.839 400 154.839C392.874 154.839 387.097 160.616 387.097 167.742C387.097 174.868 392.874 180.645 400 180.645Z" fill="#E54B4B" />
</svg>
